:SAMPLES-PER-SECOND 30
:FRAME-RANGE 1-2045
:FULLY-SPECIFIED
:DEGREES
512
root  19.0716 35.1365 29.1962 -166.149 79.1199 -171.953
RightUpLeg  -28.1917 -4.42128 -15.281
RightLeg  48.419 -0.507731 -0.953459
RightFoot  -19.1154 1.58736 24.9193
RightToes  5.82063e-011 0 -3.6325e-017
Spine  28.7957 1.8389 5.05006
Spine1  -5.02666 4.98269 -14.3008
HEad  -16.7008 18.2578 -8.09452
LeftShoulder1  1.77561 -4.47858 -15.4443
LeftArm  -43.746 -34.5715 -25.2865
LeftForeArm  -5.12507 -38.5871 -9.24108
LeftHand  -0.0773812 7.55514 -1.79892
RightShoulder  8.44851 42.9804 10.3306
RightArm  -21.1065 33.0273 21.8536
RightForeArm  -49.9018 34.9867 9.97636
RightHand  0.00508948 -4.9673 11.661
LeftUpLeg  -39.6885 15.7966 14.5356
LeftLeg  22.5046 -11.7034 -4.95643
LeftFoot  10.8128 3.60982 -18.6375
LeftToes  -3.90176e-010 -2.48536e-010 1.05482e-011
513
root  19.2598 35.066 28.6071 -164.07 79.4479 -170.457
RightUpLeg  -28.3675 -3.79064 -16.0317
RightLeg  48.1174 -0.620385 -1.08009
RightFoot  -18.7188 1.52145 25.2052
RightToes  5.82063e-011 0 -3.6325e-017
Spine  29.0011 2.76573 2.34846
Spine1  -4.09105 4.87397 -12.0014
HEad  -18.4195 17.9574 -7.2366
LeftShoulder1  1.63409 -4.60189 -13.1568
LeftArm  -42.1317 -38.0629 -16.5915
LeftForeArm  -1.67179 -30.3244 -6.70697
LeftHand  -0.0241914 4.92583 -0.883293
RightShoulder  9.68925 41.6039 13.9465
RightArm  -21.0732 29.9827 20.9492
RightForeArm  -47.2438 39.9333 11.5491
RightHand  0.0206692 -4.82273 11.6518
LeftUpLeg  -41.7249 16.813 13.6268
LeftLeg  26.1531 -11.9869 -6.013
LeftFoot  9.16135 3.25702 -18.1892
LeftToes  -3.90176e-010 -2.48536e-010 1.05482e-011
514
root  19.3539 35.149 28.001 -160.397 79.5062 -167.6
RightUpLeg  -27.9158 -5.24869 -16.0528
RightLeg  45.9417 -0.51136 -0.885636
RightFoot  -18.2335 1.34279 24.0405
RightToes  5.82063e-011 0 -3.6325e-017
Spine  28.9824 2.97562 0.661601
Spine1  -3.15854 4.66101 -10.9842
HEad  -18.5386 17.5145 -7.46862
LeftShoulder1  1.60779 -5.21309 -11.2618
LeftArm  -35.1907 -41.2457 -9.48321
LeftForeArm  -9.94785 -20.9654 -6.11751
LeftHand  -0.00737099 4.9511 -7.05635
RightShoulder  10.5367 39.5718 17.2183
RightArm  -19.4946 28.4712 20.9877
RightForeArm  -45.0483 43.2308 12.7406
RightHand  0.0411024 -4.65169 12.0054
LeftUpLeg  -43.3151 17.8151 12.4488
LeftLeg  27.7355 -12.2286 -6.5665
LeftFoot  9.1204 2.88991 -16.2307
LeftToes  -3.90176e-010 -2.48536e-010 1.05482e-011
515
root  19.3591 35.2117 27.3562 -152.514 79.4461 -160.346
RightUpLeg  -27.189 -7.64004 -15.2891
RightLeg  43.0768 0.666461 0.369182
RightFoot  -17.7598 1.16032 22.5877
RightToes  5.82063e-011 0 -3.6325e-017
Spine  29.5746 2.71553 -0.170808
Spine1  -3.29921 3.85382 -9.30577
HEad  -18.6731 17.8462 -7.7517
LeftShoulder1  1.5295 -5.58767 -9.45911
LeftArm  -33.2583 -41.5268 -6.14299
LeftForeArm  -18.6797 -14.6941 -10.4835
LeftHand  -0.047244 5.38934 -16.6285
RightShoulder  11.3056 38.5556 19.8282
RightArm  -17.2329 26.9746 21.3588
RightForeArm  -42.6993 46.6801 14.1556
RightHand  0.067609 -4.40111 11.8371
LeftUpLeg  -44.9796 18.5772 12.3043
LeftLeg  29.6825 -12.2498 -7.1252
LeftFoot  8.56789 2.50713 -14.52
LeftToes  -3.90176e-010 -2.48536e-010 1.05482e-011
516
root  19.3572 35.2839 26.7994 -143.047 80.3903 -151.641
RightUpLeg  -27.0821 -9.53466 -14.8254
RightLeg  40.2192 2.94045 2.38353
RightFoot  -16.9987 0.984914 22.0337
RightToes  5.82063e-011 0 -3.6325e-017
Spine  29.7438 3.03303 -1.29621
Spine1  -3.03833 3.58021 -7.74978
HEad  -19.5865 18.0232 -7.63232
LeftShoulder1  1.49023 -5.77335 -8.61062
LeftArm  -22.3745 -41.8701 -6.66648
LeftForeArm  -22.9122 -13.2763 -12.7575
LeftHand  0.145346 4.3789 -21.4601
RightShoulder  11.9151 38.2518 21.5842
RightArm  -16.2204 25.7262 21.1175
RightForeArm  -39.8999 49.6168 15.5069
RightHand  0.0937237 -4.19172 12.1673
LeftUpLeg  -46.203 20.237 12.1341
LeftLeg  31.2767 -12.1264 -7.51172
LeftFoot  7.63589 2.25165 -13.6983
LeftToes  -3.90176e-010 -2.48536e-010 1.05482e-011
517
root  19.2855 35.4106 26.3103 -128.915 81.916 -138.662
RightUpLeg  -27.9252 -11.4439 -14.3632
RightLeg  37.4204 6.25113 4.8515
RightFoot  -15.5404 0.705966 21.9082
RightToes  5.82063e-011 0 -3.6325e-017
Spine  29.5007 3.2534 -1.97711
Spine1  -2.57685 3.71641 -7.81427
HEad  -20.6758 17.9017 -7.81052
LeftShoulder1  1.6011 -6.21441 -9.07135
LeftArm  -11.1691 -39.3394 -9.63821
LeftForeArm  -28.1107 -18.1834 -9.93578
LeftHand  0.584231 2.41854 -23.6077
RightShoulder  12.0472 38.0858 22.044
RightArm  -16.0397 25.9433 21.1575
RightForeArm  -38.2644 51.2741 16.3521
RightHand  0.113375 -4.02578 12.2573
LeftUpLeg  -47.0533 21.6705 12.1018
LeftLeg  31.7442 -10.9152 -6.86742
LeftFoot  7.22486 2.09682 -13.0531
LeftToes  -3.90176e-010 -2.48536e-010 1.05482e-011
518
root  19.1569 35.4983 25.8883 -112.38 82.7149 -122.794
RightUpLeg  -28.2892 -13.4105 -13.8517
RightLeg  35.4729 9.259 6.78231
RightFoot  -15.4603 0.770827 24.0485
RightToes  5.82063e-011 0 -3.6325e-017
Spine  29.8207 2.85158 -1.53175
Spine1  -2.77348 3.63867 -8.99321
HEad  -20.8959 17.2193 -7.61163
LeftShoulder1  1.73464 -5.79994 -11.4847
LeftArm  -10.5168 -36.8926 -10.7289
LeftForeArm  -36.0097 -21.3279 -7.82941
LeftHand  0.359358 3.5177 -24.3125
RightShoulder  12.1737 38.8089 21.8058
RightArm  -16.9743 26.4922 21.3632
RightForeArm  -37.6128 51.9247 16.7027
RightHand  0.117959 -3.92733 11.711
LeftUpLeg  -47.5284 22.7266 12.3663
LeftLeg  32.2208 -9.84943 -6.29045
LeftFoot  6.88126 1.9655 -12.4786
LeftToes  -3.90176e-010 -2.48536e-010 1.05482e-011
519
root  19.0359 35.573 25.6132 -97.859 83.358 -108.849
RightUpLeg  -29.0475 -15.2829 -13.6694
RightLeg  36.067 6.30385 4.65825
RightFoot  -15.8119 0.818602 23.4389
RightToes  5.82063e-011 0 -3.6325e-017
Spine  30.142 2.53375 -0.807033
Spine1  -3.35017 3.67757 -10.5937
HEad  -20.3513 16.1708 -6.26376
LeftShoulder1  1.84387 -5.33539 -13.9298
LeftArm  -14.489 -37.684 -8.89778
LeftForeArm  -35.8757 -18.7689 -9.65795
LeftHand  0.463808 3.19111 -25.9929
RightShoulder  12.0121 38.8784 21.3534
RightArm  -17.5181 27.0927 21.108
RightForeArm  -36.4808 53.0543 17.3401
RightHand  0.102907 -4.04155 11.4669
LeftUpLeg  -47.8304 23.9055 11.944
LeftLeg  32.241 -9.26305 -5.90614
LeftFoot  6.86392 1.89371 -12.0462
LeftToes  -3.90176e-010 -2.48536e-010 1.05482e-011
